# xmcd
#
# Track frame offsets:
#	150
#	23918
#	40412
#	65162
#	83177
#	96710
#	114474
#	142974
#	169974
#	193114
#
# Disc length: 2984 seconds
#
# Revision: 0
# Processed by: cddbd v1.5.2PL0 Copyright (c) Steve Scherf et al.
# Submitted via: EZCDAudioConverter 1.0.8.1
#
DISCID=930ba60a
DTITLE=Sven-Ole Lüthke and Big Bad Jol feat. Mr. Rossi - Rollin' and Tumblin'
DYEAR=1900
DGENRE=
TTITLE0=Killing Floor
TTITLE1=Drop down Mama
TTITLE2=Walking the dog
TTITLE3=Help me
TTITLE4=Going down the road feeling bad
TTITLE5=If I had possession over judgement day
TTITLE6=Honey Bee Blues
TTITLE7=Little Red Rooster
TTITLE8=Who do you love
TTITLE9=The same thing
EXTD=
EXTT0=
EXTT1=
EXTT2=
EXTT3=
EXTT4=
EXTT5=
EXTT6=
EXTT7=
EXTT8=
EXTT9=
PLAYORDER=
